<svg width="269" height="269" viewBox="0 0 269 269" fill="none" xmlns="http://www.w3.org/2000/svg">
<path d="M144.6 0C164.599 0 181.6 1.20062 195.6 3.60059C210 5.60058 221.6 9.4 230.4 15C237.2 19 242.2 24.6 245.4 31.7998C249 38.9998 250.8 46.6006 250.8 54.6006C250.8 68.2004 243.8 81.0001 229.8 93C216.2 105 197.2 118.4 172.8 133.2L105.6 174C101.6 176.4 99.5996 179.2 99.5996 182.4C99.5997 186.8 102.4 189.201 108 189.601C112 190.001 117 190.4 123 190.8H142.8C175.2 190.8 200.4 186.6 218.4 178.2C225.2 174.6 230 172.8 232.8 172.8C237.2 172.8 241.4 175.6 245.4 181.2C249.8 186.4 252 193.201 252 201.601C252 212.944 248.298 222.122 240.897 229.138C234.639 213.806 219.583 203 202 203C178.804 203 160 221.804 160 245C160 246.766 160.111 248.507 160.322 250.216C152.858 250.604 145.017 250.8 136.8 250.8C132.965 250.8 129.236 250.769 125.611 250.709C125.865 248.842 126 246.937 126 245C126 221.804 107.196 203 84 203C63.7846 203 46.9065 217.282 42.9023 236.307C39.9801 234.306 37.4788 232.138 35.4004 229.8C33.0004 227 31.0004 223.2 29.4004 218.4C27.8004 213.6 27 209.2 27 205.2C27 192.4 32 181.6 42 172.8C52.3999 164 64.4001 155 78 145.8L157.8 90.6006C168.599 82.2009 174 76.2006 174 72.6006C174 63.8006 162 59.4004 138 59.4004C122 59.4004 109.2 61.4004 99.5996 65.4004C89.9998 69.0004 83.3998 73.4007 79.7998 78.6006C77.4 81.4004 75.2001 83.6003 73.2002 85.2002C71.6002 86.4002 69.2 87 66 87C60.0001 87 53.8003 83.8002 47.4004 77.4004C41.4004 70.6004 38.4004 61.6003 38.4004 50.4004C38.4004 37.2004 43.4004 26.9998 53.4004 19.7998C63.4003 12.6 76.4006 7.59976 92.4004 4.7998C108.8 1.59989 126.2 1.96337e-05 144.6 0Z" fill="#C8F04A"/>
<path d="M84 221C97.2548 221 108 231.745 108 245C108 258.255 97.2548 269 84 269C70.7452 269 60 258.255 60 245C60 231.745 70.7452 221 84 221Z" fill="#C8F04A"/>
<path d="M202 221C215.255 221 226 231.745 226 245C226 258.255 215.255 269 202 269C188.745 269 178 258.255 178 245C178 231.745 188.745 221 202 221Z" fill="#C8F04A"/>
</svg>
