<svg width="269" height="269" viewBox="0 0 269 269" fill="none" xmlns="http://www.w3.org/2000/svg">
<path d="M139.6 0C159.599 0 176.6 1.20062 190.6 3.60059C205 5.60058 216.6 9.4 225.4 15C232.2 19 237.2 24.6 240.4 31.7998C244 38.9998 245.8 46.6006 245.8 54.6006C245.8 68.2004 238.8 81.0001 224.8 93C211.2 105 192.2 118.4 167.8 133.2L100.6 174C96.5997 176.4 94.5996 179.2 94.5996 182.4C94.5997 186.8 97.4001 189.201 103 189.601C107 190.001 112 190.4 118 190.8H137.8C170.2 190.8 195.4 186.6 213.4 178.2C220.2 174.6 225 172.8 227.8 172.8C232.2 172.8 236.4 175.6 240.4 181.2C244.8 186.4 247 193.201 247 201.601C247 212.944 243.298 222.122 235.897 229.138C229.639 213.806 214.583 203 197 203C173.804 203 155 221.804 155 245C155 246.766 155.111 248.507 155.322 250.216C147.858 250.604 140.017 250.8 131.8 250.8C127.965 250.8 124.236 250.769 120.611 250.709C120.865 248.842 121 246.937 121 245C121 221.804 102.196 203 79 203C58.7846 203 41.9065 217.282 37.9023 236.307C34.9802 234.306 32.4788 232.138 30.4004 229.8C28.0004 227 26.0004 223.2 24.4004 218.4C22.8004 213.6 22 209.2 22 205.2C22 192.4 27 181.6 37 172.8C47.3999 164 59.4001 155 73 145.8L152.8 90.6006C163.599 82.2009 169 76.2006 169 72.6006C169 63.8006 157 59.4004 133 59.4004C117 59.4004 104.2 61.4004 94.5996 65.4004C84.9998 69.0004 78.3998 73.4007 74.7998 78.6006C72.4 81.4004 70.2001 83.6003 68.2002 85.2002C66.6002 86.4002 64.2 87 61 87C55.0001 87 48.8003 83.8002 42.4004 77.4004C36.4004 70.6004 33.4004 61.6003 33.4004 50.4004C33.4004 37.2004 38.4004 26.9998 48.4004 19.7998C58.4003 12.6 71.4006 7.59976 87.4004 4.7998C103.8 1.59989 121.2 1.97442e-05 139.6 0Z" fill="#C8F04A"/>
<path d="M79 221C92.2548 221 103 231.745 103 245C103 258.255 92.2548 269 79 269C65.7452 269 55 258.255 55 245C55 231.745 65.7452 221 79 221Z" fill="#C8F04A"/>
<path d="M197 221C210.255 221 221 231.745 221 245C221 258.255 210.255 269 197 269C183.745 269 173 258.255 173 245C173 231.745 183.745 221 197 221Z" fill="#C8F04A"/>
</svg>
